<svg width="1184" height="100" viewBox="0 0 1184 100" fill="none" xmlns="http://www.w3.org/2000/svg">
<path d="M23.6638 98.6639H7.6596L7.78415 82.4981H23.6638C28.0644 82.4981 31.4894 81.6522 33.9388 79.9598C36.3883 78.2673 38.1112 75.5958 39.1075 71.9441C40.1454 68.2923 40.6643 63.5044 40.6643 57.5817V42.4183C40.6643 37.9203 40.3945 34.1126 39.8548 30.9953C39.3151 27.8334 38.4017 25.295 37.1148 23.3801C35.8278 21.4206 34.1049 19.9732 31.9461 19.0381C29.7873 18.1028 27.1096 17.6353 23.9129 17.6353H7.34822V1.4028H23.9129C29.1438 1.4028 33.8973 2.31571 38.1734 4.14159C42.4495 5.96747 46.1236 8.63946 49.1957 12.1576C52.2679 15.6312 54.6343 19.9287 56.2952 25.0501C57.9552 30.1714 58.7856 36.0053 58.7856 42.5514V57.5817C58.7856 64.1724 57.9552 70.0068 56.2952 75.0836C54.6343 80.1604 52.2679 84.4574 49.1957 87.9761C46.1651 91.4493 42.491 94.0994 38.1734 95.925C33.8558 97.7512 29.0193 98.6639 23.6638 98.6639ZM18.246 1.4028V98.6639H0V1.4028H18.246ZM124.11 82.4981V98.6639H84.6914V82.4981H124.11ZM90.3585 1.4028V98.6639H72.1122V1.4028H90.3585ZM118.817 40.8148V56.5132H84.6914V40.8148H118.817ZM123.986 1.4028V17.6353H84.6914V1.4028H123.986ZM173.119 73.0795C173.119 71.3429 172.974 69.7614 172.683 68.3364C172.393 66.9114 171.77 65.5981 170.815 64.3951C169.902 63.1928 168.552 61.9905 166.767 60.7882C165.024 59.5858 162.74 58.3387 159.917 57.0475C156.555 55.5335 153.296 53.93 150.141 52.2375C146.985 50.5009 144.141 48.4968 141.609 46.2259C139.076 43.9543 137.063 41.2822 135.569 38.2097C134.115 35.0924 133.389 31.4406 133.389 27.2545C133.389 23.1574 134.074 19.4388 135.444 16.0988C136.855 12.7588 138.848 9.90865 141.422 7.54841C143.996 5.14357 147.006 3.29542 150.452 2.00396C153.939 0.712498 157.821 0.0667362 162.097 0.0667362C167.909 0.0667362 172.932 1.35826 177.167 3.94118C181.443 6.5241 184.743 10.0645 187.069 14.5624C189.435 19.0603 190.618 24.2262 190.618 30.0601H172.434C172.434 27.299 172.061 24.8719 171.313 22.7788C170.608 20.6413 169.466 18.9713 167.888 17.7688C166.311 16.5664 164.276 15.9653 161.785 15.9653C159.461 15.9653 157.53 16.4773 155.994 17.5017C154.499 18.4814 153.379 19.8396 152.631 21.5764C151.925 23.2687 151.573 25.1837 151.573 27.3212C151.573 28.9244 151.925 30.3718 152.631 31.6633C153.379 32.9102 154.396 34.0458 155.683 35.0701C156.97 36.0498 158.485 37.0073 160.229 37.9425C162.014 38.8776 163.965 39.7903 166.082 40.681C170.192 42.4183 173.825 44.3328 176.98 46.4258C180.135 48.4747 182.772 50.7904 184.889 53.3736C187.006 55.912 188.605 58.7841 189.684 61.9905C190.763 65.1969 191.303 68.8486 191.303 72.9458C191.303 76.9981 190.639 80.6947 189.31 84.0348C188.024 87.3302 186.134 90.1802 183.644 92.5848C181.153 94.9453 178.142 96.7715 174.614 98.0628C171.126 99.354 167.224 100 162.906 100C158.713 100 154.749 99.3768 151.012 98.1297C147.276 96.8384 143.975 94.9012 141.111 92.318C138.288 89.6907 136.067 86.3726 134.448 82.3644C132.829 78.3121 132.019 73.5249 132.019 68.0027H150.265C150.265 70.9417 150.535 73.458 151.075 75.551C151.614 77.5999 152.445 79.2476 153.566 80.4941C154.686 81.6964 156.057 82.6098 157.675 83.233C159.336 83.8121 161.225 84.1017 163.342 84.1017C165.75 84.1017 167.66 83.6115 169.072 82.6319C170.525 81.6522 171.563 80.3382 172.185 78.6906C172.808 77.0429 173.119 75.1725 173.119 73.0795ZM222.564 1.4028V98.6639H204.443V1.4028H222.564ZM299.72 47.562V87.6418C298.434 89.1116 296.545 90.8261 294.054 92.7854C291.604 94.7006 288.386 96.393 284.401 97.8622C280.457 99.2872 275.641 100 269.954 100C264.931 100 260.364 99.1541 256.254 97.4616C252.186 95.7691 248.677 93.2087 245.73 89.7796C242.824 86.3057 240.603 81.9859 239.067 76.8202C237.531 71.6097 236.763 65.4416 236.763 58.3166V41.7503C236.763 34.7138 237.489 28.5905 238.942 23.3801C240.437 18.1251 242.595 13.7608 245.418 10.2872C248.241 6.81358 251.604 4.23066 255.506 2.53838C259.45 0.846106 263.893 0 268.833 0C275.641 0 281.225 1.22466 285.584 3.67397C289.985 6.12335 293.306 9.75278 295.548 14.5624C297.831 19.372 299.202 25.2727 299.658 32.2645H282.035C281.744 28.1674 281.101 24.961 280.104 22.6452C279.149 20.3295 277.8 18.6818 276.057 17.702C274.313 16.6778 272.05 16.1656 269.269 16.1656C266.861 16.1656 264.765 16.6332 262.979 17.5685C261.194 18.4591 259.7 19.9287 258.495 21.9773C257.292 24.0258 256.399 26.6533 255.818 29.8597C255.236 33.0661 254.946 36.985 254.946 41.6166V58.3166C254.946 62.9032 255.278 66.8225 255.943 70.0737C256.607 73.3243 257.582 75.9743 258.869 78.0225C260.198 80.0714 261.859 81.5633 263.851 82.4981C265.886 83.3888 268.273 83.8342 271.012 83.8342C273.213 83.8342 274.977 83.5895 276.306 83.0993C277.634 82.6098 278.693 82.0976 279.482 81.5633C280.312 80.9842 280.997 80.5389 281.537 80.2272V62.3248H268.522V47.562H299.72ZM376.254 1.4028V98.6639H358.631L330.172 37.8089V98.6639H312.86V1.4028H330.234L358.942 62.926V1.4028H376.254ZM442.949 82.4981V98.6639H403.53V82.4981H442.949ZM409.196 1.4028V98.6639H390.951V1.4028H409.196ZM437.656 40.8148V56.5132H403.53V40.8148H437.656ZM442.824 1.4028V17.6353H403.53V1.4028H442.824ZM453.66 1.4028H482.741C488.802 1.4028 493.971 2.51612 498.247 4.74282C502.523 6.96945 505.803 10.2649 508.086 14.6292C510.37 18.9935 511.511 24.382 511.511 30.7949C511.511 36.0498 510.847 40.548 509.518 44.2887C508.19 47.9846 506.301 51.08 503.852 53.5736C501.402 56.023 498.476 57.9823 495.071 59.4521L489.529 62.9929H465.927L465.865 46.7602H482.243C484.734 46.7602 486.788 46.1811 488.408 45.0236C490.069 43.8213 491.293 42.1508 492.082 40.013C492.913 37.8312 493.327 35.2928 493.327 32.3981C493.327 29.3253 492.954 26.6978 492.206 24.5156C491.501 22.289 490.359 20.5967 488.781 19.4388C487.245 18.2364 485.232 17.6353 482.741 17.6353H471.905V98.6639H453.66V1.4028ZM494.822 98.6639L478.195 55.3108L497.313 55.244L514.313 97.7284V98.6639H494.822ZM606.664 98.6639H590.66L590.785 82.4981H606.664C611.065 82.4981 614.49 81.6522 616.942 79.9598C619.386 78.2673 621.113 75.5958 622.11 71.9441C623.145 68.2923 623.662 63.5044 623.662 57.5817V42.4183C623.662 37.9203 623.394 34.1126 622.858 30.9953C622.316 27.8334 621.399 25.295 620.115 23.3801C618.831 21.4206 617.104 19.9732 614.947 19.0381C612.788 18.1028 610.11 17.6353 606.914 17.6353H590.349V1.4028H606.914C612.145 1.4028 616.899 2.31571 621.175 4.14159C625.451 5.96747 629.123 8.63946 632.196 12.1576C635.27 15.6312 637.632 19.9287 639.297 25.0501C640.955 30.1714 641.784 36.0053 641.784 42.5514V57.5817C641.784 64.1724 640.955 70.0068 639.297 75.0836C637.632 80.1604 635.27 84.4574 632.196 87.9761C629.167 91.4493 625.489 94.0994 621.175 95.925C616.855 97.7512 612.02 98.6639 606.664 98.6639ZM601.247 1.4028V98.6639H583.001V1.4028H601.247ZM707.108 82.4981V98.6639H667.692V82.4981H707.108ZM673.358 1.4028V98.6639H655.112V1.4028H673.358ZM701.815 40.8148V56.5132H667.692V40.8148H701.815ZM706.989 1.4028V17.6353H667.692V1.4028H706.989ZM745.969 77.8888L763.156 1.4028H782.836L756.554 98.6639H743.289L745.969 77.8888ZM731.27 1.4028L748.401 77.8888L751.2 98.6639H737.872L711.783 1.4028H731.27ZM843.491 82.4981V98.6639H804.068V82.4981H843.491ZM809.735 1.4028V98.6639H791.489V1.4028H809.735ZM838.199 40.8148V56.5132H804.068V40.8148H838.199ZM843.366 1.4028V17.6353H804.068V1.4028H843.366ZM904.451 82.4981V98.6639H866.78V82.4981H904.451ZM872.385 1.4028V98.6639H854.138V1.4028H872.385ZM974.887 42.4852V58.7172C974.887 65.5754 974.095 71.5876 972.518 76.7533C970.985 81.8749 968.784 86.172 965.917 89.6459C963.093 93.075 959.67 95.6581 955.643 97.3948C951.66 99.1314 947.234 100 942.378 100C937.522 100 933.077 99.1314 929.05 97.3948C925.067 95.6581 921.619 93.075 918.714 89.6459C915.853 86.172 913.627 81.8749 912.05 76.7533C910.473 71.5876 909.688 65.5754 909.688 58.7172V42.4852C909.688 35.4486 910.455 29.303 911.988 24.0481C913.528 18.7486 915.747 14.3398 918.652 10.8216C921.557 7.25893 925.004 4.58694 928.988 2.8056C932.977 0.979713 937.397 0.0667362 942.253 0.0667362C947.109 0.0667362 951.535 0.979713 955.519 2.8056C959.502 4.58694 962.949 7.25893 965.854 10.8216C968.759 14.3398 970.985 18.7486 972.518 24.0481C974.095 29.303 974.887 35.4486 974.887 42.4852ZM956.765 58.7172V42.3515C956.765 37.7198 956.454 33.7786 955.83 30.5277C955.207 27.2322 954.272 24.5379 953.025 22.4449C951.785 20.3518 950.264 18.8154 948.481 17.8356C946.698 16.8559 944.622 16.366 942.253 16.366C939.891 16.366 937.79 16.8559 935.963 17.8356C934.18 18.8154 932.666 20.3518 931.419 22.4449C930.216 24.5379 929.299 27.2322 928.676 30.5277C928.096 33.7786 927.809 37.7198 927.809 42.3515V58.7172C927.809 63.1707 928.121 66.9783 928.738 70.1399C929.362 73.3022 930.297 75.8854 931.543 77.8888C932.79 79.8929 934.305 81.3848 936.088 82.3644C937.914 83.2999 940.015 83.7673 942.378 83.7673C944.703 83.7673 946.76 83.2999 948.543 82.3644C950.37 81.3848 951.884 79.8929 953.087 77.8888C954.291 75.8854 955.207 73.3022 955.83 70.1399C956.454 66.9783 956.765 63.1707 956.765 58.7172ZM1019.03 64.3951H1000.48V48.1631H1019.03C1021.61 48.1631 1023.71 47.5392 1025.32 46.2928C1026.99 45.0456 1028.19 43.3311 1028.94 41.1491C1029.69 38.9224 1030.06 36.4284 1030.06 33.6673C1030.06 30.8617 1029.66 28.2565 1028.88 25.8516C1028.13 23.4023 1026.95 21.4206 1025.32 19.9064C1023.75 18.3923 1021.65 17.6353 1019.03 17.6353H1006.33V98.6639H988.146V1.4028H1019.03C1025.14 1.4028 1030.39 2.78333 1034.79 5.54439C1039.19 8.30544 1042.55 12.1131 1044.88 16.9672C1047.25 21.7769 1048.43 27.299 1048.43 33.5337C1048.43 39.8131 1047.25 45.2683 1044.88 49.8997C1042.55 54.487 1039.19 58.0492 1034.79 60.5875C1030.39 63.1259 1025.14 64.3951 1019.03 64.3951ZM1112.64 82.4981V98.6639H1073.21V82.4981H1112.64ZM1078.88 1.4028V98.6639H1060.63V1.4028H1078.88ZM1107.34 40.8148V56.5132H1073.21V40.8148H1107.34ZM1112.51 1.4028V17.6353H1073.21V1.4028H1112.51ZM1123.35 1.4028H1152.43C1158.49 1.4028 1163.65 2.51612 1167.93 4.74282C1172.21 6.96945 1175.48 10.2649 1177.77 14.6292C1180.05 18.9935 1181.19 24.382 1181.19 30.7949C1181.19 36.0498 1180.53 40.548 1179.21 44.2887C1177.87 47.9846 1175.98 51.08 1173.53 53.5736C1171.09 56.023 1168.16 57.9823 1164.76 59.4521L1159.21 62.9929H1135.61L1135.55 46.7602H1151.93C1154.42 46.7602 1156.47 46.1811 1158.09 45.0236C1159.75 43.8213 1160.98 42.1508 1161.76 40.013C1162.6 37.8312 1163.01 35.2928 1163.01 32.3981C1163.01 29.3253 1162.64 26.6978 1161.89 24.5156C1161.18 22.289 1160.04 20.5967 1158.47 19.4388C1156.93 18.2364 1154.92 17.6353 1152.43 17.6353H1141.59V98.6639H1123.35V1.4028ZM1164.51 98.6639L1147.88 55.3108L1167 55.244L1184 97.7284V98.6639H1164.51Z" fill="black"/>
<path d="M546 62C551.523 62 556 57.5228 556 52C556 46.4772 551.523 42 546 42C540.477 42 536 46.4772 536 52C536 57.5228 540.477 62 546 62Z" fill="black"/>
</svg>
